<svg xmlns="http://www.w3.org/2000/svg" xmlns:xlink="http://www.w3.org/1999/xlink" width="1024" zoomAndPan="magnify" viewBox="0 0 768 225" height="300" preserveAspectRatio="xMidYMid meet" version="1.0"><path fill="#12e19f" d="M 13.023438 74.753906 L 34.675781 74.753906 L 50.136719 56.203125 L 56.324219 74.753906 L 65.601562 87.121094 L 59.414062 102.574219 L 53.230469 111.847656 L 43.953125 111.847656 L 43.953125 118.03125 L 53.230469 130.398438 L 77.972656 136.582031 L 59.414062 179.859375 L 50.136719 182.953125 L 50.136719 148.945312 L 34.675781 133.488281 L 22.304688 93.300781 L 9.929688 93.300781 L 9.929688 80.933594 Z M 13.023438 74.753906 Z M 13.023438 74.753906 " fill-opacity="1" fill-rule="nonzero"/><path fill="#12e19f" d="M 96.527344 84.027344 L 90.34375 93.300781 L 81.0625 99.484375 L 93.433594 105.664062 L 77.972656 114.941406 L 84.15625 124.214844 L 99.621094 127.304688 L 99.621094 139.671875 L 105.804688 148.945312 L 111.988281 148.945312 L 118.175781 130.398438 L 118.175781 118.03125 L 127.457031 118.03125 L 133.640625 127.304688 L 142.914062 118.03125 L 146.011719 124.214844 L 146.011719 133.488281 L 170.753906 139.671875 L 161.476562 127.304688 L 158.382812 118.03125 L 167.660156 108.757812 L 167.660156 93.300781 L 189.308594 87.121094 L 189.308594 77.84375 L 158.382812 62.386719 L 149.105469 62.386719 L 115.082031 80.933594 L 105.804688 74.753906 L 96.527344 74.753906 Z M 96.527344 84.027344 Z M 96.527344 84.027344 " fill-opacity="1" fill-rule="nonzero"/><path fill="#12e19f" d="M 155.289062 167.492188 L 155.289062 158.21875 L 164.566406 152.039062 L 176.9375 152.039062 L 183.125 161.3125 L 183.125 170.585938 L 167.660156 164.402344 Z M 155.289062 167.492188 Z M 155.289062 167.492188 " fill-opacity="1" fill-rule="nonzero"/><path fill="#12e19f" d="M 71.785156 43.839844 L 90.34375 43.839844 L 90.34375 59.292969 L 77.972656 77.84375 L 68.695312 62.386719 L 62.507812 59.292969 L 62.507812 43.839844 Z M 71.785156 43.839844 Z M 71.785156 43.839844 " fill-opacity="1" fill-rule="nonzero"/><path fill="#ababab" d="M 149.214844 103.390625 C 149.148438 103.160156 142.664062 80.132812 125.660156 67.992188 C 105.335938 53.488281 75.78125 59.179688 75.484375 59.234375 L 74.269531 53.171875 C 75.585938 52.910156 106.765625 46.910156 129.25 62.964844 C 148.078125 76.40625 154.894531 100.738281 155.179688 101.765625 Z M 149.214844 103.390625 Z M 149.214844 103.390625 " fill-opacity="1" fill-rule="nonzero"/><path fill="#ababab" d="M 150.011719 104.765625 C 149.863281 104.617188 134.824219 90.035156 105.496094 87.101562 C 75.828125 84.125 54.652344 92.964844 54.445312 93.050781 L 52.011719 87.367188 C 52.925781 86.976562 74.75 77.820312 106.117188 80.949219 C 137.777344 84.113281 153.71875 99.726562 154.382812 100.390625 Z M 150.011719 104.765625 Z M 150.011719 104.765625 " fill-opacity="1" fill-rule="nonzero"/><path fill="#ababab" d="M 176.265625 160.148438 L 171.429688 156.292969 C 171.5625 156.125 184.855469 139.175781 180.1875 125.191406 C 174.683594 108.683594 152.039062 105.667969 151.8125 105.640625 L 151.441406 105.574219 C 151.273438 105.53125 134.007812 101.492188 106.890625 111.652344 C 83.402344 120.457031 68.371094 144.164062 68.222656 144.398438 L 62.976562 141.125 C 63.628906 140.082031 79.289062 115.394531 104.71875 105.863281 C 132.570312 95.425781 150.597656 99.035156 152.757812 99.53125 C 155.292969 99.878906 179.550781 103.71875 186.058594 123.234375 C 191.789062 140.429688 176.898438 159.351562 176.265625 160.148438 Z M 176.265625 160.148438 Z M 176.265625 160.148438 " fill-opacity="1" fill-rule="nonzero"/><path fill="#ffffff" d="M 261.84375 134.550781 L 280.789062 134.550781 L 280.789062 145.699219 L 247.402344 145.699219 L 247.402344 86.386719 L 261.84375 86.386719 Z M 261.84375 134.550781 Z M 261.84375 134.550781 " fill-opacity="1" fill-rule="evenodd"/><path fill="#ffffff" d="M 299.289062 93.652344 C 296.742188 93.652344 294.667969 92.910156 293.0625 91.414062 C 291.457031 89.925781 290.65625 88.085938 290.65625 85.890625 C 290.65625 83.636719 291.457031 81.761719 293.0625 80.269531 C 294.667969 78.777344 296.742188 78.03125 299.289062 78.03125 C 301.765625 78.03125 303.804688 78.777344 305.40625 80.269531 C 307.015625 81.761719 307.824219 83.636719 307.824219 85.890625 C 307.824219 88.085938 307.015625 89.925781 305.40625 91.414062 C 303.804688 92.910156 301.765625 93.652344 299.289062 93.652344 Z M 306.460938 98.550781 L 306.460938 145.699219 L 292.019531 145.699219 L 292.019531 98.550781 Z M 306.460938 98.550781 Z M 306.460938 98.550781 " fill-opacity="1" fill-rule="evenodd"/><path fill="#ffffff" d="M 349.992188 98.054688 C 355.511719 98.054688 359.921875 99.84375 363.214844 103.417969 C 366.511719 106.988281 368.160156 111.90625 368.160156 118.160156 L 368.160156 145.699219 L 353.789062 145.699219 L 353.789062 120.101562 C 353.789062 116.945312 352.972656 114.5 351.339844 112.753906 C 349.703125 111.003906 347.503906 110.125 344.746094 110.125 C 341.980469 110.125 339.78125 111.003906 338.152344 112.753906 C 336.519531 114.5 335.699219 116.945312 335.699219 120.101562 L 335.699219 145.699219 L 321.257812 145.699219 L 321.257812 98.550781 L 335.699219 98.550781 L 335.699219 104.8125 C 337.167969 102.730469 339.140625 101.085938 341.621094 99.878906 C 344.097656 98.667969 346.886719 98.054688 349.992188 98.054688 Z M 349.992188 98.054688 Z M 349.992188 98.054688 " fill-opacity="1" fill-rule="evenodd"/><path fill="#ffffff" d="M 411.335938 145.699219 L 396.964844 125.925781 L 396.964844 145.699219 L 382.519531 145.699219 L 382.519531 83.179688 L 396.964844 83.179688 L 396.964844 117.734375 L 411.253906 98.550781 L 429.082031 98.550781 L 409.476562 122.210938 L 429.25 145.699219 Z M 411.335938 145.699219 Z M 411.335938 145.699219 " fill-opacity="1" fill-rule="evenodd"/><path fill="#ababab" d="M 499.253906 98.054688 C 505.105469 98.054688 509.769531 99.828125 513.234375 103.378906 C 516.699219 106.925781 518.433594 111.851562 518.433594 118.160156 L 518.433594 145.699219 L 504.070312 145.699219 L 504.070312 120.101562 C 504.070312 117.054688 503.265625 114.707031 501.65625 113.046875 C 500.050781 111.386719 497.84375 110.550781 495.027344 110.550781 C 492.210938 110.550781 489.996094 111.386719 488.386719 113.046875 C 486.78125 114.707031 485.984375 117.054688 485.984375 120.101562 L 485.984375 145.699219 L 471.609375 145.699219 L 471.609375 120.101562 C 471.609375 117.054688 470.804688 114.707031 469.195312 113.046875 C 467.589844 111.386719 465.382812 110.550781 462.5625 110.550781 C 459.746094 110.550781 457.53125 111.386719 455.921875 113.046875 C 454.320312 114.707031 453.519531 117.054688 453.519531 120.101562 L 453.519531 145.699219 L 439.074219 145.699219 L 439.074219 98.550781 L 453.519531 98.550781 L 453.519531 104.46875 C 454.988281 102.496094 456.90625 100.9375 459.273438 99.78125 C 461.640625 98.632812 464.316406 98.054688 467.300781 98.054688 C 470.851562 98.054688 474.019531 98.820312 476.808594 100.339844 C 479.601562 101.851562 481.78125 104.019531 483.351562 106.835938 C 484.988281 104.25 487.214844 102.140625 490.03125 100.503906 C 492.851562 98.871094 495.921875 98.054688 499.253906 98.054688 Z M 499.253906 98.054688 Z M 499.253906 98.054688 " fill-opacity="1" fill-rule="evenodd"/><path fill="#ababab" d="M 577.328125 121.367188 C 577.328125 122.71875 577.238281 124.125 577.066406 125.59375 L 544.367188 125.59375 C 544.585938 128.523438 545.527344 130.761719 547.183594 132.3125 C 548.847656 133.863281 550.894531 134.632812 553.316406 134.632812 C 556.921875 134.632812 559.433594 133.113281 560.847656 130.066406 L 576.222656 130.066406 C 575.433594 133.167969 574.011719 135.957031 571.953125 138.433594 C 569.898438 140.910156 567.324219 142.855469 564.21875 144.265625 C 561.125 145.671875 557.660156 146.371094 553.824219 146.371094 C 549.210938 146.371094 545.097656 145.386719 541.492188 143.414062 C 537.882812 141.445312 535.066406 138.625 533.039062 134.964844 C 531.007812 131.304688 529.996094 127.027344 529.996094 122.125 C 529.996094 117.226562 530.992188 112.949219 532.992188 109.285156 C 534.992188 105.625 537.800781 102.808594 541.40625 100.835938 C 545.011719 98.867188 549.152344 97.878906 553.824219 97.878906 C 558.386719 97.878906 562.445312 98.835938 565.996094 100.753906 C 569.550781 102.667969 572.324219 105.402344 574.320312 108.953125 C 576.324219 112.5 577.328125 116.636719 577.328125 121.367188 Z M 562.53125 117.570312 C 562.53125 115.09375 561.683594 113.117188 559.996094 111.652344 C 558.304688 110.183594 556.195312 109.449219 553.660156 109.449219 C 551.238281 109.449219 549.191406 110.15625 547.527344 111.570312 C 545.871094 112.976562 544.84375 114.972656 544.449219 117.570312 Z M 562.53125 117.570312 Z M 562.53125 117.570312 " fill-opacity="1" fill-rule="evenodd"/><path fill="#12e19f" d="M 631.933594 86.386719 L 631.933594 97.960938 L 616.210938 97.960938 L 616.210938 145.699219 L 601.753906 145.699219 L 601.753906 97.960938 L 586.035156 97.960938 L 586.035156 86.386719 Z M 631.933594 86.386719 Z M 631.933594 86.386719 " fill-opacity="1" fill-rule="evenodd"/><path fill="#12e19f" d="M 690.066406 98.550781 L 690.066406 145.699219 L 675.609375 145.699219 L 675.609375 139.269531 C 674.148438 141.363281 672.164062 143.042969 669.652344 144.316406 C 667.144531 145.578125 664.367188 146.207031 661.332031 146.207031 C 657.726562 146.207031 654.539062 145.410156 651.777344 143.804688 C 649.015625 142.195312 646.871094 139.871094 645.347656 136.832031 C 643.832031 133.789062 643.074219 130.214844 643.074219 126.101562 L 643.074219 98.550781 L 657.449219 98.550781 L 657.449219 124.160156 C 657.449219 127.308594 658.265625 129.757812 659.898438 131.507812 C 661.53125 133.253906 663.726562 134.125 666.480469 134.125 C 669.296875 134.125 671.527344 133.253906 673.160156 131.507812 C 674.792969 129.757812 675.609375 127.308594 675.609375 124.160156 L 675.609375 98.550781 Z M 690.066406 98.550781 Z M 690.066406 98.550781 " fill-opacity="1" fill-rule="evenodd"/><path fill="#12e19f" d="M 719.207031 106.410156 C 720.90625 103.824219 723.023438 101.785156 725.554688 100.289062 C 728.085938 98.800781 730.90625 98.054688 734.007812 98.054688 L 734.007812 113.34375 L 730.03125 113.34375 C 726.421875 113.34375 723.714844 114.121094 721.910156 115.664062 C 720.109375 117.210938 719.207031 119.929688 719.207031 123.816406 L 719.207031 145.699219 L 704.765625 145.699219 L 704.765625 98.550781 L 719.207031 98.550781 Z M 719.207031 106.410156 Z M 719.207031 106.410156 " fill-opacity="1" fill-rule="evenodd"/></svg>