<svg width="768" height="225" xmlns="http://www.w3.org/2000/svg" version="1.0" preserveAspectRatio="xMidYMid meet" zoomAndPan="magnify">

 <g>
  <title>Layer 1</title>
  <path id="svg_1" fill-rule="nonzero" d="m13.02344,74.75391l21.65234,0l15.46094,-18.55078l6.1875,18.55078l9.27734,12.36718l-6.1875,15.45313l-6.18359,9.27344l-9.27734,0l0,6.18359l9.27734,12.36719l24.74219,6.18359l-18.5586,43.27735l-9.27734,3.09375l0,-34.00782l-15.46094,-15.45703l-12.37109,-40.1875l-12.375,0l0,-12.36719l3.09375,-6.17968zm0,0zm0,0" fill="#12e19f"/>
  <path id="svg_2" fill-rule="nonzero" d="m96.52734,84.02734l-6.18359,9.27344l-9.28125,6.1836l12.37109,6.17968l-15.46093,9.27735l6.18359,9.27343l15.46484,3.08985l0,12.36719l6.1836,9.27343l6.18359,0l6.1875,-18.54687l0,-12.36719l9.28125,0l6.1836,9.27344l9.27343,-9.27344l3.09766,6.18359l0,9.27344l24.74219,6.1836l-9.27735,-12.36719l-3.09375,-9.27344l9.27735,-9.27344l0,-15.45703l21.64843,-6.17969l0,-9.27734l-30.92578,-15.45703l-9.27734,0l-34.02344,18.54687l-9.27734,-6.17968l-9.27735,0l0,9.27343zm0,0zm0,0" fill="#12e19f"/>
  <path id="svg_3" fill-rule="nonzero" d="m155.28906,167.49219l0,-9.27344l9.27735,-6.17969l12.37109,0l6.1875,9.27344l0,9.27344l-15.46484,-6.1836l-12.3711,3.08985zm0,0zm0,0" fill="#12e19f"/>
  <path id="svg_4" fill-rule="nonzero" d="m71.78516,43.83984l18.55859,0l0,15.45313l-12.37109,18.55078l-9.27735,-15.45703l-6.1875,-3.09375l0,-15.45313l9.27735,0zm0,0zm0,0" fill="#12e19f"/>
  <path id="svg_5" fill-rule="nonzero" d="m149.21484,103.39063c-0.0664,-0.23047 -6.55078,-23.25782 -23.55468,-35.39844c-20.32422,-14.50391 -49.87891,-8.8125 -50.17578,-8.75781l-1.21485,-6.0625c1.31641,-0.26172 32.4961,-6.26172 54.98047,9.79296c18.82813,13.44141 25.64453,37.77344 25.92969,38.80079l-5.96485,1.625zm0,0zm0,0" fill="#ababab"/>
  <path id="svg_6" fill-rule="nonzero" d="m150.01172,104.76563c-0.14844,-0.14844 -15.1875,-14.73047 -44.51563,-17.66407c-29.66796,-2.97656 -50.84375,5.86328 -51.05078,5.94922l-2.43359,-5.68359c0.91406,-0.39063 22.73828,-9.54688 54.10547,-6.41797c31.66015,3.16406 47.60156,18.77734 48.26562,19.44141l-4.37109,4.375zm0,0zm0,0" fill="#ababab"/>
  <path id="svg_7" fill-rule="nonzero" d="m176.26563,160.14844l-4.83594,-3.85547c0.13281,-0.16797 13.42578,-17.11719 8.75781,-31.10156c-5.50391,-16.50782 -28.14844,-19.52344 -28.375,-19.55078l-0.37109,-0.06641c-0.16797,-0.04297 -17.4336,-4.08203 -44.55078,6.07812c-23.48829,8.80469 -38.51954,32.51172 -38.66797,32.7461l-5.2461,-3.27344c0.65235,-1.04297 16.3125,-25.73047 41.74219,-35.26172c27.85156,-10.4375 45.87891,-6.82812 48.03906,-6.33203c2.53516,0.34766 26.79297,4.1875 33.30078,23.70313c5.73047,17.19531 -9.16015,36.11718 -9.79296,36.91406zm0,0zm0,0" fill="#ababab"/>
  <path id="svg_8" fill-rule="evenodd" d="m261.84375,134.55078l18.94531,0l0,11.14844l-33.38672,0l0,-59.3125l14.44141,0l0,48.16406zm0,0zm0,0" fill="#000000"/>
  <path id="svg_9" fill-rule="evenodd" d="m299.28906,93.65234c-2.54687,0 -4.62109,-0.74218 -6.22656,-2.23828c-1.60547,-1.48828 -2.40625,-3.32812 -2.40625,-5.52343c0,-2.25391 0.80078,-4.12891 2.40625,-5.6211c1.60547,-1.49219 3.67969,-2.23828 6.22656,-2.23828c2.47657,0 4.51563,0.74609 6.11719,2.23828c1.60938,1.49219 2.41797,3.36719 2.41797,5.6211c0,2.19531 -0.80859,4.03515 -2.41797,5.52343c-1.60156,1.4961 -3.64062,2.23828 -6.11719,2.23828zm7.17188,4.89844l0,47.14844l-14.44141,0l0,-47.14844l14.44141,0zm0,0zm0,0" fill="#000000"/>
  <path id="svg_10" fill-rule="evenodd" d="m349.99219,98.05469c5.51953,0 9.92969,1.78906 13.22265,5.36328c3.29688,3.57031 4.94532,8.48828 4.94532,14.74219l0,27.53906l-14.3711,0l0,-25.59766c0,-3.15625 -0.8164,-5.60156 -2.44922,-7.34765c-1.63671,-1.75 -3.83593,-2.62891 -6.59375,-2.62891c-2.76562,0 -4.96484,0.87891 -6.59375,2.62891c-1.63281,1.74609 -2.45312,4.1914 -2.45312,7.34765l0,25.59766l-14.44141,0l0,-47.14844l14.44141,0l0,6.26172c1.46875,-2.08203 3.44141,-3.72656 5.92187,-4.93359c2.47657,-1.21094 5.26563,-1.82422 8.3711,-1.82422zm0,0zm0,0" fill="#000000"/>
  <path id="svg_11" fill-rule="evenodd" d="m411.33594,145.69922l-14.3711,-19.77344l0,19.77344l-14.44531,0l0,-62.51953l14.44531,0l0,34.55469l14.28907,-19.1836l17.82812,0l-19.60547,23.66016l19.77344,23.48828l-17.91406,0zm0,0zm0,0" fill="#000000"/>
  <path id="svg_12" fill-rule="evenodd" d="m499.25391,98.05469c5.85156,0 10.51562,1.77344 13.98047,5.32422c3.46484,3.54687 5.19921,8.47265 5.19921,14.78125l0,27.53906l-14.36328,0l0,-25.59766c0,-3.04687 -0.80468,-5.39453 -2.41406,-7.05468c-1.60547,-1.66016 -3.8125,-2.4961 -6.62891,-2.4961c-2.8164,0 -5.03125,0.83594 -6.64062,2.4961c-1.60547,1.66015 -2.40234,4.00781 -2.40234,7.05468l0,25.59766l-14.375,0l0,-25.59766c0,-3.04687 -0.80469,-5.39453 -2.41407,-7.05468c-1.60547,-1.66016 -3.8125,-2.4961 -6.63281,-2.4961c-2.81641,0 -5.03125,0.83594 -6.64062,2.4961c-1.60157,1.66015 -2.40235,4.00781 -2.40235,7.05468l0,25.59766l-14.44531,0l0,-47.14844l14.44531,0l0,5.91797c1.46875,-1.97266 3.38672,-3.53125 5.75391,-4.6875c2.36719,-1.14844 5.04297,-1.72656 8.02734,-1.72656c3.55078,0 6.71875,0.76562 9.50781,2.28515c2.79297,1.51172 4.97266,3.67969 6.54297,6.4961c1.63672,-2.58594 3.86328,-4.69531 6.67969,-6.33203c2.82031,-1.63282 5.89063,-2.44922 9.22266,-2.44922zm0,0zm0,0" fill="#ababab"/>
  <path id="svg_13" fill-rule="evenodd" d="m577.32813,121.36719c0,1.35156 -0.08985,2.75781 -0.26172,4.22656l-32.69922,0c0.21875,2.92969 1.16015,5.16797 2.8164,6.71875c1.66407,1.55078 3.71094,2.32031 6.13282,2.32031c3.60547,0 6.11718,-1.51953 7.53125,-4.5664l15.375,0c-0.78907,3.10156 -2.21094,5.89062 -4.26953,8.36718c-2.05469,2.47657 -4.62891,4.42188 -7.73438,5.83204c-3.09375,1.40625 -6.55859,2.10546 -10.39453,2.10546c-4.61328,0 -8.72656,-0.98437 -12.33203,-2.95703c-3.60938,-1.96875 -6.42578,-4.78906 -8.45313,-8.44922c-2.03125,-3.66015 -3.04297,-7.9375 -3.04297,-12.83984c0,-4.89844 0.9961,-9.17578 2.9961,-12.83984c2,-3.66016 4.80859,-6.47657 8.41406,-8.44922c3.60547,-1.96875 7.74609,-2.95703 12.41797,-2.95703c4.5625,0 8.62109,0.95703 12.17187,2.875c3.55469,1.91406 6.32813,4.64843 8.32422,8.19922c2.00391,3.54687 3.00782,7.68359 3.00782,12.41406zm-14.79688,-3.79688c0,-2.47656 -0.84766,-4.45312 -2.53516,-5.91797c-1.6914,-1.46875 -3.80078,-2.20312 -6.33593,-2.20312c-2.42188,0 -4.46875,0.70703 -6.13282,2.12109c-1.65625,1.40625 -2.68359,3.40235 -3.07812,6l18.08203,0zm0,0zm0,0" fill="#ababab"/>
  <path id="svg_14" fill-rule="evenodd" d="m631.93359,86.38672l0,11.57422l-15.72265,0l0,47.73828l-14.45703,0l0,-47.73828l-15.71875,0l0,-11.57422l45.89843,0zm0,0zm0,0" fill="#12e19f"/>
  <path id="svg_15" fill-rule="evenodd" d="m690.06641,98.55078l0,47.14844l-14.45703,0l0,-6.42969c-1.46094,2.09375 -3.44532,3.77344 -5.95704,5.04688c-2.50781,1.26172 -5.28515,1.89062 -8.32031,1.89062c-3.60547,0 -6.79297,-0.79687 -9.55469,-2.40234c-2.76171,-1.60938 -4.90625,-3.9336 -6.42968,-6.97266c-1.51563,-3.04297 -2.27344,-6.61719 -2.27344,-10.73047l0,-27.55078l14.375,0l0,25.60938c0,3.14843 0.81641,5.59765 2.44922,7.34765c1.63281,1.7461 3.82812,2.61719 6.58203,2.61719c2.81641,0 5.04687,-0.87109 6.67969,-2.61719c1.63281,-1.75 2.44922,-4.19922 2.44922,-7.34765l0,-25.60938l14.45703,0zm0,0zm0,0" fill="#12e19f"/>
  <path id="svg_16" fill-rule="evenodd" d="m719.20703,106.41016c1.69922,-2.58594 3.81641,-4.625 6.34766,-6.1211c2.53125,-1.48828 5.35156,-2.23437 8.45312,-2.23437l0,15.28906l-3.97656,0c-3.60937,0 -6.31641,0.77734 -8.12109,2.32031c-1.80078,1.54688 -2.70313,4.26563 -2.70313,8.15235l0,21.88281l-14.4414,0l0,-47.14844l14.4414,0l0,7.85938zm0,0zm0,0" fill="#12e19f"/>
 </g>
</svg>